<?xml version="1.0" encoding="UTF-8"?>
<svg id="Layer_1" data-name="Layer 1" xmlns="http://www.w3.org/2000/svg" viewBox="0 0 1176.02 1358.35">
  <defs>
    <style>
      .cls-1 {
        stroke-width: 0px;
        fill: white;
      }
    </style>
  </defs>
  <g>
    <path class="cls-1" d="M0,1029.56v328.79h1176.02v-328.79H0ZM167.93,1292.68c-54.54,0-98.9-44.37-98.9-98.9s44.37-98.9,98.9-98.9c26.48,0,50.54,10.48,68.31,27.48l-27.81,41.35c-9.22-12.38-23.91-20.45-40.5-20.45-27.85,0-50.51,22.66-50.51,50.52s22.66,50.52,50.51,50.52c17.21,0,32.42-8.67,41.55-21.85l27.98,41.6c-17.88,17.69-42.44,28.64-69.52,28.64ZM305.01,1289.32h-49.3v-190.73h49.3v190.73ZM491.52,1292.69h-1.04l-107.69-93.42v90.05h-49.3v-194.11h1.04l107.69,93.42v-90.05h49.3v194.11ZM650.19,1289.32h-128.97v-190.73h126.89v44.89h-77.59v28.55h66.69v41.26h-66.69v31.14h79.67v44.89ZM781.1,1289.32l-47.22-67.18-59.48,70.55h-1.04v-194.11h48.68v71.59l52.53-71.59h57.45l-66.04,83.83,75.22,106.91h-60.1ZM910.11,1289.32h-49.3v-190.73h49.3v190.73ZM1001.38,1289.32h-62.8v-190.73h62.8c65.91,0,105.62,35.03,105.62,95.24s-39.18,95.5-105.62,95.5Z"/>
    <path class="cls-1" d="M999.82,1143.74h-11.94v100.69h11.94c38.15,0,57.09-18.68,57.09-50.34s-18.94-50.34-57.09-50.34Z"/>
  </g>
  <g>
    <path class="cls-1" d="M1037.04,324.26c-1.77-2.18-41.13-49.36-124.32-58.07,1.51-12.77,3.23-29.88,4.27-48.57,2.97-53.37-1.18-92.29-12.32-115.67l-10.68-22.41-117.44,84.77,24.24,33.57,73.2-52.84c2.23,15.15,3.46,37.43,1.67,69.92-1.99,36.14-6.83,67.02-6.87,67.33l-3.74,23.62,23.91.32c33.1.45,62.66,8.01,87.86,22.47,4.32,2.48,8.14,4.97,11.46,7.32-58.51,47.03-87.48,97.78-101.67,133.65-17.46,44.14-17.21,76.58-17.2,77.93l41.4-.58v.1c0-.27.07-27.2,15.09-64.21,20.12-49.57,56.12-92.86,106.99-128.67l18.16-12.78-14.02-17.22Z"/>
    <path class="cls-1" d="M289.62,347.73l31.16-27.28c-32.43-37.05-50.08-86.27-52.46-146.31-.63-16.01-.04-30.72,1.01-43.12,33.33,25.55,76.66,38.85,127.62,38.84.31,0,.64,0,.95,0,50.35-.16,90.47-13.19,92.15-13.74l21.88-7.21-9.49-20.99c-12.52-27.69-39.18-52.74-60.61-69.67,34.15-12.63,66.54-18.21,96.64-16.59,31.04,1.67,59.95,10.99,85.94,27.72,45.38,29.21,66.82,71.5,67.03,71.92l18.56-9.18,18.59-9.12c-1.03-2.1-25.82-51.73-80.06-87.33C616.34,14.57,580.5,2.7,542.01.41c-47.14-2.81-98.06,8.9-151.36,34.8l-34.24,16.63,32.57,19.7c12.48,7.55,42.03,28.35,61.51,51.72-13.98,2.66-32.42,5.14-52.73,5.21-.28,0-.56,0-.85,0-56.02,0-98.3-18.03-125.68-53.59l-26.29-34.14-10.23,41.86c-.4,1.62-9.69,40.33-7.82,91.91,2.51,69.31,24.2,129.21,62.73,173.23Z"/>
    <path class="cls-1" d="M901.75,603.64l-30.28,28.24c28.45,30.5,46.13,68.23,52.55,112.14.82,5.63,1.4,11.02,1.79,16.08-26.57-17.88-58.24-27.69-93.57-28.74-39.01-1.16-68.99,8.86-70.24,9.29l-22.3,7.58,10.37,21.14c11.28,22.99,27.73,57.66,38.38,80.22-31.56,7.22-60.76,8.84-87.08,4.81-25.46-3.9-48.41-13.12-68.21-27.4-34.31-24.74-47.9-56.78-48.03-57.1l.04.09-38.39,15.51c.68,1.69,17.24,41.82,60.19,73.64,25.19,18.66,54.3,30.75,86.51,35.93,11.97,1.93,24.36,2.89,37.15,2.89,29.15,0,60.34-5,93.13-14.96l22.88-6.95-10.16-21.65c-.25-.54-20.52-43.75-37.8-79.67,9.05-1.35,20.17-2.34,32.32-1.98,41.16,1.22,74.29,16.77,98.46,46.19l28.95,35.24,7.48-44.99c.2-1.21,4.86-30.09-.67-69.54-7.34-52.33-29.29-99.37-63.48-136.02Z"/>
    <path class="cls-1" d="M328.94,836.62c-11.25-95.51,5.27-173.81,5.45-174.68l3.63-16.67-15.66-6.76c-37.4-16.13-68.44-38.85-92.26-67.52-19.1-23-33.75-49.98-43.52-80.19-7.52-23.23-11-44.92-12.54-61.91,81.81,42.7,146.08,23.25,149.12,22.29l-12.49-39.48c-.15.05-16,4.63-40.82,2.94-24.59-1.68-62.81-9.99-105.26-40.01l-29.32-20.74-3.25,35.77c-.19,2.1-4.45,52.08,14.64,112.22,11.28,35.55,28.41,67.41,50.9,94.72,24.84,30.16,56.2,54.66,93.38,72.99-5.54,34.75-15.12,119.74,3.54,214.39l8.24,41.71,27.77-32.21c.72-.84,73.38-84.13,153.8-92.37l-4.22-41.19c-62.7,6.43-118.56,47.43-151.13,76.69Z"/>
    <rect class="cls-1" x="668.39" y="347.29" width="58.19" height="58.19" transform="translate(-61.86 603.44) rotate(-45)"/>
    <rect class="cls-1" x="444.98" y="347.29" width="58.19" height="58.19" transform="translate(-127.29 445.46) rotate(-45)"/>
    <polygon class="cls-1" points="685.6 654.71 760.21 580.1 730.93 550.82 675.54 606.21 607.29 579.26 607.29 516.26 667.82 456.64 586.31 468.44 505.54 456.64 565.88 516.08 565.88 579.34 497.82 606.21 442.43 550.82 413.15 580.1 487.75 654.71 586.68 615.64 685.6 654.71"/>
  </g>
</svg>