<svg width="324" height="52" viewBox="0 0 324 52" fill="none" xmlns="http://www.w3.org/2000/svg">
<path d="M29.8208 17.5216H22.3918C21.9233 13.5633 20.0881 11.5787 16.8917 11.5787C14.318 11.5787 12.4001 12.741 11.1325 15.0655C9.86496 17.39 9.22567 20.4217 9.22567 24.1662C9.22567 24.7583 9.2422 25.29 9.27527 25.756C9.30833 26.222 9.37447 26.9786 9.48469 28.0257C9.59491 29.0729 9.80434 29.9829 10.1185 30.7614C10.4326 31.5399 10.8294 32.3458 11.3199 33.1736C11.8049 34.0015 12.4772 34.6374 13.3425 35.0925C14.2022 35.5475 15.1997 35.7723 16.3295 35.7723C17.9939 35.7723 19.4103 35.235 20.5841 34.1605C21.758 33.0859 22.3808 31.4851 22.4414 29.3634H30.1074C30.0468 30.3612 29.9641 31.1671 29.8704 31.7757C29.7767 32.3842 29.4956 33.2449 29.0217 34.3469C28.5532 35.4543 27.8919 36.4466 27.0487 37.3183C24.5687 39.8457 21.262 41.1066 17.1231 41.1066C14.3014 41.1066 11.8545 40.6242 9.7878 39.6538C7.72113 38.6889 6.10085 37.3786 4.94351 35.7229C3.78066 34.0673 2.93746 32.2745 2.40288 30.3448C1.86829 28.4095 1.60376 26.3372 1.60376 24.1223C1.60376 18.7277 3.0091 14.4076 5.81427 11.1621C8.61944 7.91651 12.4056 6.29373 17.1727 6.29373C20.9038 6.29373 23.9459 7.32989 26.2992 9.40222C28.6524 11.4745 29.8263 14.1828 29.8263 17.5216H29.8208Z" fill="white"/>
<path d="M33.3479 28.7055C33.3479 27.176 33.5573 25.7122 33.9817 24.3087C34.406 22.9052 35.0619 21.573 35.9547 20.3066C36.8475 19.0456 38.1261 18.0314 39.7904 17.2639C41.4493 16.5018 43.3947 16.1181 45.6212 16.1181C49.6995 16.1181 52.7692 17.2968 54.8414 19.6487C56.908 22.0061 57.9441 24.9611 57.9441 28.5136C57.9441 32.0662 56.886 35.1034 54.7697 37.5211C52.6534 39.9388 49.5562 41.145 45.4834 41.145C41.9398 41.145 39.0299 40.0704 36.7593 37.9159C34.4832 35.7613 33.3479 32.6912 33.3479 28.7V28.7055ZM40.4959 28.7494C40.4959 33.8041 42.2374 36.3315 45.7149 36.3315C47.3738 36.3315 48.6468 35.7229 49.5231 34.5058C50.3994 33.2888 50.8403 31.2 50.8403 28.234C50.8403 23.2451 49.0987 20.7506 45.6212 20.7506C42.1437 20.7506 40.4959 23.4151 40.4959 28.7494Z" fill="white"/>
<path d="M63.3064 40.3062V21.1234C63.3064 19.8132 63.2293 18.3329 63.0695 16.6773H69.793L70.03 19.72C71.755 17.3516 74.202 16.1619 77.3654 16.1619C81.0964 16.1619 83.5874 17.6422 84.844 20.6081C86.3816 17.6751 88.9222 16.2113 92.4659 16.2113C96.0095 16.2113 98.2967 17.4722 99.7075 19.9996C100.49 21.2769 100.881 23.4644 100.881 26.551V40.3062H93.8712V26.4084C93.8712 25.3777 93.7996 24.5225 93.6618 23.8372C93.5185 23.1519 93.1382 22.5214 92.51 21.9403C91.8817 21.3647 91.0054 21.0741 89.8756 21.0741C89.06 21.0741 88.3766 21.2331 87.831 21.5401C87.2799 21.8526 86.8611 22.2199 86.5635 22.6421C86.2659 23.0642 86.0454 23.6453 85.9076 24.3964C85.7643 25.1475 85.6817 25.7834 85.6486 26.3152C85.6155 26.847 85.6045 27.5652 85.6045 28.4698V40.3062H78.5943V26.2714C78.5943 25.619 78.5613 25.0707 78.5007 24.6321C78.44 24.1936 78.3023 23.6673 78.0983 23.0423C77.8944 22.4173 77.5031 21.9348 76.9245 21.5894C76.3458 21.2441 75.6018 21.0741 74.6925 21.0741C73.6564 21.0741 72.8187 21.2605 72.1739 21.6333C71.5291 22.0061 71.0937 22.5324 70.8567 23.2013C70.6197 23.8701 70.4709 24.4183 70.4103 24.8405C70.3497 25.2626 70.3166 25.7834 70.3166 26.4084V40.3062H63.3064Z" fill="white"/>
<path d="M107.704 40.3062V21.1234C107.704 19.8132 107.627 18.3329 107.467 16.6773H114.191L114.428 19.72C116.153 17.3516 118.6 16.1619 121.763 16.1619C125.494 16.1619 127.985 17.6422 129.242 20.6081C130.779 17.6751 133.315 16.2113 136.858 16.2113C140.402 16.2113 142.689 17.4722 144.1 19.9996C144.882 21.2769 145.274 23.4644 145.274 26.551V40.3062H138.269V26.4084C138.269 25.3777 138.197 24.5225 138.06 23.8372C137.916 23.1519 137.536 22.5214 136.908 21.9403C136.28 21.3647 135.403 21.0741 134.273 21.0741C133.458 21.0741 132.774 21.2331 132.229 21.5401C131.678 21.8526 131.259 22.2199 130.961 22.6421C130.664 23.0642 130.443 23.6453 130.3 24.3964C130.157 25.1475 130.074 25.7834 130.041 26.3152C130.008 26.847 129.991 27.5652 129.991 28.4698V40.3062H122.981V26.2714C122.981 25.619 122.948 25.0707 122.887 24.6321C122.827 24.1936 122.689 23.6673 122.485 23.0423C122.281 22.4173 121.89 21.9348 121.311 21.5894C120.733 21.2441 119.989 21.0741 119.079 21.0741C118.043 21.0741 117.205 21.2605 116.561 21.6333C115.916 22.0061 115.48 22.5324 115.244 23.2013C115.007 23.8701 114.858 24.4183 114.797 24.8405C114.736 25.2626 114.703 25.7834 114.703 26.4084V40.3062H107.693H107.704Z" fill="white"/>
<path d="M150.879 28.7055C150.879 27.176 151.088 25.7122 151.512 24.3087C151.937 22.9052 152.593 21.573 153.485 20.3066C154.378 19.0456 155.657 18.0314 157.321 17.2639C158.985 16.5018 160.925 16.1181 163.152 16.1181C167.225 16.1181 170.3 17.2968 172.372 19.6487C174.444 22.0061 175.475 24.9611 175.475 28.5136C175.475 32.0662 174.417 35.1034 172.3 37.5211C170.184 39.9388 167.087 41.145 163.009 41.145C159.465 41.145 156.555 40.0704 154.284 37.9159C152.008 35.7613 150.873 32.6912 150.873 28.7L150.879 28.7055ZM158.026 28.7494C158.026 33.8041 159.768 36.3315 163.246 36.3315C164.91 36.3315 166.177 35.7229 167.054 34.5058C167.93 33.2888 168.371 31.2 168.371 28.234C168.371 23.2451 166.629 20.7506 163.152 20.7506C159.674 20.7506 158.026 23.4151 158.026 28.7494Z" fill="white"/>
<path d="M180.787 40.3062V20.8877C180.787 19.1114 180.743 17.6751 180.644 16.5841H187.324L187.511 20.1421C189.203 17.3955 191.777 16.0249 195.227 16.0249C197.299 16.0249 198.919 16.4854 200.093 17.4064C201.267 18.3275 202.06 19.3472 202.468 20.4711C202.909 21.6881 203.13 24.0455 203.13 27.5378V40.3116H196.026V25.619C196.026 24.4019 195.899 23.5466 195.651 23.0478C194.99 21.7046 193.865 21.0357 192.267 21.0357C190.669 21.0357 189.462 21.6443 188.646 22.8614C188.084 23.6727 187.798 24.8734 187.798 26.4632V40.3116H180.787V40.3062Z" fill="white"/>
<path d="M209.197 16.6773H215.971L216.158 20.0434C217.629 17.4887 220.043 16.2058 223.4 16.2058C226.475 16.2058 228.889 17.2694 230.641 19.3856C232.399 21.5072 233.276 24.3745 233.276 27.9928C233.276 31.6112 232.366 34.5442 230.548 36.9784C228.729 39.4126 226.188 40.6296 222.931 40.6296C220.076 40.6296 217.866 39.6154 216.301 37.5869V49.3795H209.197V16.6773ZM221.14 36.0957C222.771 36.0957 224.022 35.394 224.904 33.9905C225.78 32.587 226.221 30.6847 226.221 28.2834C226.221 27.4391 226.155 26.6387 226.034 25.8712C225.907 25.1091 225.687 24.3032 225.378 23.4589C225.064 22.6147 224.568 21.9403 223.896 21.425C223.223 20.9097 222.397 20.652 221.427 20.652C220.016 20.652 218.754 21.277 217.64 22.5215C216.527 23.7714 215.971 25.8273 215.971 28.7001C215.971 29.3525 216.009 29.961 216.086 30.5257C216.163 31.0849 216.345 31.8579 216.626 32.8392C216.907 33.8206 217.431 34.61 218.203 35.2021C218.969 35.7942 219.95 36.0903 221.14 36.0903V36.0957Z" fill="white"/>
<path d="M238.164 40.3062V6.48013H245.125V40.3062H238.164Z" fill="white"/>
<path d="M271.793 40.3062H265.488C265.328 39.3413 265.251 38.2612 265.251 37.0771C263.493 39.6044 261.129 40.8654 258.147 40.8654C255.513 40.8654 253.54 40.2404 252.223 38.9959C250.845 37.6253 250.151 35.8929 250.151 33.8041C250.151 30.4379 251.826 27.9873 255.182 26.4578C257.128 25.5861 260.264 25.1475 264.59 25.1475C264.59 23.7111 264.48 22.6695 264.259 22.0116C263.791 20.7013 262.755 20.0489 261.156 20.0489C259.994 20.0489 259.117 20.4875 258.522 21.3592C258.175 21.891 258.004 22.5927 258.004 23.4644H251.187C251.28 20.9699 252.173 19.1114 253.865 17.8943C255.651 16.617 258.054 15.9755 261.063 15.9755C264.948 15.9755 267.775 16.9898 269.528 19.0182C270.625 20.3285 271.176 22.2638 271.176 24.8185L271.22 34.314C271.22 36.5617 271.407 38.5573 271.787 40.3007L271.793 40.3062ZM264.601 29.1715C262.314 28.9851 260.462 29.2318 259.051 29.9226C257.64 30.6079 256.935 31.6386 256.935 33.0092C256.935 33.8808 257.232 34.6648 257.828 35.3501C258.423 36.0354 259.255 36.3808 260.319 36.3808C261.509 36.3808 262.501 35.9312 263.284 35.0212C263.846 34.3359 264.21 33.5629 264.364 32.7076C264.518 31.8524 264.601 30.6737 264.601 29.177V29.1715Z" fill="white"/>
<path d="M296.769 25.0543H289.947C289.633 22.1541 288.613 20.7013 286.888 20.7013C284.441 20.7013 283.218 23.2122 283.218 28.2341C283.218 31.8195 283.796 34.2372 284.959 35.4872C285.461 36.019 286.089 36.2821 286.838 36.2821C287.092 36.2821 287.345 36.2328 287.615 36.1396C287.88 36.0464 288.205 35.8655 288.58 35.6023C288.955 35.3392 289.28 34.8677 289.544 34.1988C289.809 33.53 289.974 32.7076 290.04 31.7428H296.907C296.747 34.8019 295.733 37.1209 293.849 38.7163C292.124 40.1801 289.864 40.9147 287.075 40.9147C283.532 40.9147 280.837 39.8676 278.985 37.7788C276.979 35.4707 275.976 32.3677 275.976 28.4698C275.976 26.4413 276.268 24.6486 276.847 23.0916C277.425 21.5346 278.131 20.334 278.963 19.4897C279.795 18.6454 280.749 17.9711 281.834 17.4558C282.914 16.9404 283.873 16.606 284.706 16.4525C285.538 16.299 286.331 16.2168 287.081 16.2168C289.622 16.2168 291.865 16.9514 293.804 18.4152C295.75 19.879 296.736 22.0938 296.769 25.0598V25.0543Z" fill="white"/>
<path d="M322.446 30.2461H306.502C306.502 34.4565 308.117 36.5617 311.346 36.5617C313.573 36.5617 314.951 35.4708 315.485 33.2888H321.834C321.674 35.3173 320.925 37.0332 319.575 38.4367C317.816 40.2788 315.044 41.1943 311.253 41.1943C307.461 41.1943 304.794 40.213 302.881 38.2448C300.842 36.1232 299.823 33.053 299.823 29.029C299.823 23.8537 301.47 20.1257 304.761 17.845C306.734 16.5348 308.96 15.8824 311.44 15.8824C313.386 15.8824 315.221 16.3264 316.946 17.2146C318.671 18.1027 320.032 19.561 321.035 21.5895C322.132 23.8372 322.6 26.7209 322.446 30.2461ZM306.739 25.8986H315.348C315.348 25.4326 315.314 24.9885 315.254 24.5664C315.188 24.1442 315.044 23.5905 314.807 22.9052C314.57 22.2199 314.152 21.6662 313.54 21.2441C312.928 20.8219 312.151 20.6136 311.214 20.6136C309.77 20.6136 308.679 21.1125 307.946 22.1103C307.208 23.1081 306.811 24.3745 306.745 25.8986H306.739Z" fill="white"/>
</svg>
