<svg width="365" height="49" viewBox="0 0 365 49" fill="none" xmlns="http://www.w3.org/2000/svg">
<g clip-path="url(#clip0_33_114)">
<path fill-rule="evenodd" clip-rule="evenodd" d="M312.412 19.778H313.15C313.802 19.778 314.021 19.4987 314.021 18.3146V6.35857C314.021 5.16787 313.802 4.88694 313.15 4.88694H312.412V4.2532H317.159V18.3146C317.159 19.4987 317.378 19.778 318.026 19.778H318.769V20.4118H312.412V19.778Z" fill="white"/>
<path fill-rule="evenodd" clip-rule="evenodd" d="M198.062 19.778H198.657C199.696 19.778 199.719 19.1949 199.719 16.4199V8.96699C199.719 6.19359 199.696 5.60886 198.634 5.60886H198.062V4.98166H204.758V5.60886H204.195C203.135 5.60886 203.11 6.19359 203.11 8.96699V12.0654H208.577V8.96699C208.577 6.19359 208.554 5.60886 207.492 5.60886H206.929V4.98166H213.625V5.60886H213.058C211.995 5.60886 211.972 6.19359 211.972 8.96699V16.4199C211.972 19.1949 211.995 19.778 213.036 19.778H213.625V20.4118H206.929V19.778H207.492C208.554 19.778 208.577 19.1949 208.577 16.4199V12.8151H203.11V16.4199C203.11 19.1949 203.135 19.778 204.195 19.778H204.758V20.4118H198.062V19.778Z" fill="white"/>
<path fill-rule="evenodd" clip-rule="evenodd" d="M215.172 14.9679C215.172 18.3668 217.087 20.7646 220.539 20.7646C223.995 20.7646 225.909 18.3668 225.909 14.9679C225.909 11.5983 223.995 9.1875 220.539 9.1875C217.087 9.1875 215.172 11.5983 215.172 14.9679ZM218.43 14.9679C218.43 10.6542 219.388 9.94047 220.539 9.94047C221.694 9.94047 222.652 10.6542 222.652 14.9679C222.652 18.7392 222.085 20.0279 220.539 20.0279C218.997 20.0279 218.43 18.7392 218.43 14.9679Z" fill="white"/>
<path fill-rule="evenodd" clip-rule="evenodd" d="M233.209 20.7139C234.492 20.7139 236.603 20.7597 236.603 22.509C236.603 24.1766 234.492 24.7205 233.102 24.7205C231.754 24.7205 229.641 24.4167 229.641 22.6952C229.641 20.7597 231.754 20.7139 233.209 20.7139ZM232.096 18.13C230.986 18.13 230.51 17.9716 230.51 17.4554C230.51 16.9916 230.811 16.5832 231.528 16.5832C234.35 16.5832 237.73 16.5832 237.73 12.8053C237.73 11.6947 237.225 10.9074 236.199 10.0385C236.572 9.90453 236.834 9.8196 237.163 9.8196C237.702 9.8196 237.335 10.9695 238.641 10.9695C239.378 10.9695 239.748 10.3864 239.748 9.73303C239.748 9.02253 239.357 8.37242 238.574 8.37242C237.53 8.3643 236.659 9.44883 235.484 9.44883C234.985 9.44557 234.047 9.1875 232.87 9.1875C230.493 9.1875 228.12 10.2671 228.12 12.9736C228.12 14.5661 229.123 15.7878 230.585 16.2174V16.2598V16.237C229.534 16.562 228.884 17.4473 228.884 18.553C228.884 19.3632 229.277 20.0851 230.189 20.4118V20.4591C229.078 20.5735 227.652 21.346 227.652 22.669C227.652 25.0406 230.731 25.4686 232.538 25.4686C235.145 25.4686 238.595 24.482 238.595 21.3297C238.595 18.5971 236.299 18.13 234.67 18.13H232.096ZM231.258 13.0144C231.258 11.7943 231.322 9.94047 232.994 9.94047C234.59 9.94047 234.59 12.0556 234.59 13.1467C234.59 14.2165 234.413 15.8335 232.983 15.8335C231.322 15.8335 231.258 14.259 231.258 13.0144Z" fill="white"/>
<path fill-rule="evenodd" clip-rule="evenodd" d="M250.825 15.0136C250.825 11.6408 249.544 9.1875 245.913 9.1875C242.457 9.1875 240.543 11.5983 240.543 14.9728C240.543 18.3668 242.457 20.7646 245.913 20.7646C248.639 20.7646 250.336 19.3746 250.618 16.6976L249.653 16.6878C249.608 18.4126 248.498 20.0279 246.609 20.0279C244.133 20.0279 243.94 17.7364 243.94 15.5559V15.0136H250.825ZM243.94 14.3848C243.94 12.2467 244.025 9.94047 245.827 9.94047C247.432 9.94047 247.432 12.0295 247.432 14.3848H243.94Z" fill="white"/>
<path fill-rule="evenodd" clip-rule="evenodd" d="M252.629 16.8625H253.326C253.762 18.7131 254.785 20.0279 256.831 20.0279C257.939 20.0279 259.001 19.3713 259.001 18.2525C259.001 16.8625 257.914 16.5555 255.829 16.0769C254.22 15.7061 252.629 15.1639 252.629 12.9229C252.629 10.3308 254.525 9.1875 256.919 9.19893C257.898 9.19893 258.592 9.5452 259.31 9.5452C259.896 9.5452 260.224 9.3688 260.484 9.1875H260.615V12.6714H259.918C259.7 11.2422 258.525 9.9372 257.003 9.9372C255.937 9.9372 254.85 10.3308 254.85 11.662C254.85 12.7678 255.418 12.9229 257.939 13.5126C259.869 13.9438 261.347 14.5579 261.347 17.0798C261.347 19.698 259.196 20.7629 256.916 20.758C255.896 20.758 254.785 20.4069 253.85 20.4069C253.413 20.4069 252.975 20.6143 252.76 20.7629H252.629V16.8625Z" fill="white"/>
<path fill-rule="evenodd" clip-rule="evenodd" d="M272.712 16.7907C272.408 19.471 270.909 20.7629 268.219 20.7629C264.695 20.7629 263.085 18.1267 263.085 14.8633C263.085 10.7653 266.021 9.1875 268.629 9.1875C271.632 9.1875 272.527 10.8094 272.527 11.5754C272.527 12.6159 271.981 13.3345 270.845 13.3345C269.956 13.3345 269.39 12.7024 269.39 11.8335C269.39 11.2014 269.697 11.0936 269.697 10.8306C269.697 10.3521 268.951 9.9372 268.455 9.9372C266.586 9.9372 266.478 12.575 266.478 15.1198C266.478 16.8413 266.455 20.0279 268.868 20.0279C270.845 20.0279 271.604 18.5547 271.755 16.7776L272.712 16.7907Z" fill="white"/>
<path fill-rule="evenodd" clip-rule="evenodd" d="M273.906 19.778H274.645C275.297 19.778 275.513 19.4987 275.513 18.308V6.3553C275.513 5.16787 275.297 4.88694 274.645 4.88694H273.906V4.2532H278.649V11.0021H278.693C279.323 9.94374 280.472 9.1875 282.081 9.1875C284.214 9.1875 285.258 10.4599 285.258 12.2631V18.308C285.258 19.4987 285.476 19.778 286.129 19.778H286.609V20.4118H280.777V19.778H281.256C281.906 19.778 282.122 19.4987 282.122 18.308V12.8282C282.122 11.7616 282.122 10.5236 280.731 10.5236C278.649 10.5236 278.649 12.9148 278.649 14.2639V18.308C278.649 19.4987 278.868 19.778 279.52 19.778H279.996V20.4118H273.906V19.778Z" fill="white"/>
<path fill-rule="evenodd" clip-rule="evenodd" d="M288.057 14.9679C288.057 18.3668 289.967 20.7646 293.422 20.7646C296.879 20.7646 298.793 18.3668 298.793 14.9679C298.793 11.5983 296.879 9.1875 293.422 9.1875C289.967 9.1875 288.057 11.5983 288.057 14.9679ZM291.317 14.9679C291.317 10.6542 292.272 9.94047 293.422 9.94047C294.578 9.94047 295.532 10.6542 295.532 14.9679C295.532 18.7392 294.969 20.0279 293.422 20.0279C291.879 20.0279 291.317 18.7392 291.317 14.9679Z" fill="white"/>
<path fill-rule="evenodd" clip-rule="evenodd" d="M300.534 14.9679C300.534 18.3668 302.444 20.7646 305.904 20.7646C309.356 20.7646 311.268 18.3668 311.268 14.9679C311.268 11.5983 309.356 9.1875 305.904 9.1875C302.444 9.1875 300.534 11.5983 300.534 14.9679ZM303.795 14.9679C303.795 10.6542 304.75 9.94047 305.904 9.94047C307.057 9.94047 308.011 10.6542 308.011 14.9679C308.011 18.7392 307.445 20.0279 305.904 20.0279C304.359 20.0279 303.795 18.7392 303.795 14.9679Z" fill="white"/>
<path fill-rule="evenodd" clip-rule="evenodd" d="M209.382 33.3184C208.579 33.3184 208.336 33.9913 207.988 34.821L205.339 41.2319C205.012 42.0289 204.708 42.8619 204.447 43.7064H202.992C202.798 43.1445 202.601 42.5385 202.382 41.9816L199.495 34.7557C199.125 33.8182 199.058 33.3184 198.431 33.3184H198.062V32.6879H204.012V33.3184H203.274C202.906 33.3184 202.532 33.4066 202.532 33.7986C202.532 33.9047 202.601 34.1661 202.734 34.5352L204.86 40.0755H204.904L207.056 34.6446C207.164 34.3408 207.23 34.1007 207.23 33.9047C207.23 33.5372 206.862 33.3184 206.47 33.3184H205.945V32.6879H209.382V33.3184Z" fill="white"/>
<path fill-rule="evenodd" clip-rule="evenodd" d="M221.239 40.5606C221.239 41.5536 221.239 42.6937 220.543 42.6937C220.193 42.6937 219.995 42.4634 219.995 41.8803V35.4041C219.995 32.8725 217.62 32.3351 215.54 32.3351C214.006 32.3351 211.163 32.7875 211.163 34.8374C211.163 35.819 211.811 36.456 212.792 36.456C213.638 36.456 214.422 35.9072 214.422 34.9893C214.422 34.3768 213.944 33.9831 213.944 33.7414C213.944 33.1746 214.937 33.0864 215.415 33.0864C216.56 33.0864 216.861 33.8949 216.861 34.8619V37.1551C216.537 37.1338 216.232 37.1338 215.91 37.1338C213.543 37.1338 210.413 38.0877 210.413 40.8807C210.413 42.8766 211.954 43.9073 213.82 43.9073C215.013 43.9073 216.363 43.5381 216.99 42.4634C217.358 43.4663 218.494 43.9073 219.365 43.9073C222.038 43.9073 222.062 41.9995 222.062 40.5606H221.239ZM216.861 40.603C216.861 42.4748 215.731 42.8456 215.168 42.8456C214.059 42.8456 213.671 41.8411 213.671 40.866C213.671 38.9338 214.45 37.7627 216.211 37.7627C216.404 37.7627 216.579 37.7855 216.861 37.8509V40.603Z" fill="white"/>
<path fill-rule="evenodd" clip-rule="evenodd" d="M222.846 42.9256H223.583C224.236 42.9256 224.452 42.6463 224.452 41.4573V34.7965C224.452 33.5993 224.236 33.3184 223.583 33.3184H222.846V32.6879H225.128C225.933 32.6879 226.717 32.5376 227.46 32.3351V34.2559H227.501C228.371 33.0276 229.412 32.3351 231.017 32.3351C233.155 32.3351 234.199 33.6058 234.199 35.4107V41.4556C234.199 42.6463 234.417 42.9256 235.067 42.9256H235.545V43.5594H229.719V42.9256H230.197C230.845 42.9256 231.063 42.6463 231.063 41.4556V35.9758C231.063 34.9092 231.063 33.6712 229.675 33.6712C227.588 33.6712 227.588 36.0624 227.588 37.4197V41.4573C227.588 42.6463 227.807 42.9256 228.457 42.9256H228.935V43.5594H222.846V42.9256Z" fill="white"/>
<path fill-rule="evenodd" clip-rule="evenodd" d="M250.506 43.5545H257.464V42.9256H257.007C256.161 42.9256 255.813 42.06 255.551 41.3658L251.529 30.9909C251.136 29.9962 250.811 28.9982 250.531 27.9186H248.596C248.331 28.8447 248.007 29.6711 247.66 30.4927L243.417 40.6488C242.7 42.3654 242.29 42.9256 241.182 42.9256V43.5545H245.877V42.9256H245.29C244.548 42.9044 244.113 42.6022 244.113 42.0142C244.113 41.4785 244.378 40.6896 244.681 39.9546L245.267 38.5597H250.834L251.397 40.0199C251.789 41.0195 252.136 41.8721 252.136 42.2756C252.136 42.9044 251.485 42.9044 250.506 42.9256V43.5545ZM250.549 37.8133H245.571L248.157 31.6164L250.549 37.8133Z" fill="white"/>
<path fill-rule="evenodd" clip-rule="evenodd" d="M257.678 42.9256H258.418C259.07 42.9256 259.289 42.6463 259.289 41.4573V34.7965C259.289 33.5993 259.07 33.3184 258.418 33.3184H257.678V32.6879H259.962C260.769 32.6879 261.553 32.5376 262.294 32.3351V34.2559H262.338C263.206 33.0276 264.247 32.3351 265.854 32.3351C267.334 32.3351 268.424 32.8741 268.836 34.2559C269.771 32.9166 270.663 32.3351 272.465 32.3351C274.595 32.3351 275.642 33.6058 275.642 35.4107V41.4556C275.642 42.6463 275.86 42.9256 276.513 42.9256H276.992V43.5594H271.161V42.9256H271.637C272.288 42.9256 272.508 42.6463 272.508 41.4556V35.9758C272.508 34.9092 272.508 33.6712 271.116 33.6712C269.031 33.6712 269.031 36.0624 269.031 37.4099V41.4556C269.031 42.6463 269.249 42.9256 269.902 42.9256H270.381V43.5594H264.55V42.9256H265.028C265.682 42.9256 265.898 42.6463 265.898 41.4556V35.9758C265.898 34.9092 265.898 33.6712 264.509 33.6712C262.423 33.6712 262.423 36.0624 262.423 37.4197V41.4573C262.423 42.6463 262.641 42.9256 263.293 42.9256H263.769V43.5594H257.678V42.9256Z" fill="white"/>
<path fill-rule="evenodd" clip-rule="evenodd" d="M278.267 40.0101H278.965C279.4 41.8607 280.425 43.1755 282.467 43.1755C283.577 43.1755 284.643 42.5189 284.643 41.4001C284.643 40.0101 283.554 39.7031 281.467 39.2245C279.857 38.8537 278.267 38.3115 278.267 36.0705C278.267 33.4784 280.164 32.3351 282.557 32.3449C283.536 32.3449 284.229 32.6928 284.949 32.6928C285.536 32.6928 285.859 32.5164 286.126 32.3351H286.253V35.819H285.556C285.343 34.3898 284.165 33.0848 282.638 33.0848C281.575 33.0848 280.492 33.4784 280.492 34.8096C280.492 35.9137 281.055 36.0705 283.577 36.6602C285.51 37.0914 286.985 37.7055 286.985 40.2274C286.985 42.8456 284.836 43.9105 282.554 43.9056C281.534 43.9056 280.425 43.5545 279.487 43.5545C279.05 43.5545 278.618 43.7619 278.398 43.9105H278.267V40.0101Z" fill="white"/>
<path fill-rule="evenodd" clip-rule="evenodd" d="M295.282 33.3184H293.008V40.3205C293.008 41.6255 293.008 42.5794 294.007 42.5794C294.827 42.5794 294.958 41.7741 294.981 41.0179V40.3205H295.799V40.7958C295.799 42.9648 294.938 43.9122 292.967 43.9122C290.722 43.9122 289.871 42.5434 289.871 41.0751V33.3184H288.348V32.6879C290.502 32.5572 291.876 30.4796 292.355 28.5229H293.008V32.6879H295.282V33.3184Z" fill="white"/>
<path fill-rule="evenodd" clip-rule="evenodd" d="M307.464 38.1596C307.464 34.7884 306.179 32.3351 302.546 32.3351C299.094 32.3351 297.176 34.7459 297.176 38.1204C297.176 41.5144 299.094 43.9122 302.546 43.9122C305.274 43.9122 306.97 42.5222 307.253 39.8452L306.291 39.8337C306.243 41.5585 305.134 43.1755 303.246 43.1755C300.768 43.1755 300.575 40.884 300.575 38.7018V38.1596H307.464ZM300.575 37.5324C300.575 35.3943 300.66 33.0864 302.462 33.0864C304.07 33.0864 304.07 35.1771 304.07 37.5324H300.575Z" fill="white"/>
<path fill-rule="evenodd" clip-rule="evenodd" d="M313.55 41.4573C313.55 42.6463 313.764 42.9256 314.42 42.9256H315.421V43.5545H308.805V42.9256H309.543C310.194 42.9256 310.41 42.6463 310.41 41.4573V34.7965C310.41 33.6026 310.194 33.3184 309.543 33.3184H308.805V32.6895H311.09C311.892 32.6895 312.677 32.5376 313.42 32.3351V34.8014H313.507C313.983 33.694 314.964 32.5017 316.419 32.5017C317.439 32.5017 318.591 32.9362 318.591 34.3278C318.591 35.347 317.918 35.8892 316.768 35.8892C316.244 35.8892 315.332 35.6312 315.332 34.496C315.332 34.086 315.332 33.975 315.074 33.975C314.461 33.975 313.55 35.3862 313.55 37.7055V41.4573Z" fill="white"/>
<path fill-rule="evenodd" clip-rule="evenodd" d="M327.186 43.5545H331.757V42.9256H331.062C330.498 42.9256 330.194 42.7378 330.194 41.4311V27.4057H325.519V28.0345H326.19C327.014 28.0345 327.055 28.4216 327.055 29.4817V34.1105H327.014C326.343 32.897 325.325 32.3351 323.937 32.3351C320.763 32.3351 319.72 35.3682 319.72 38.1514C319.72 40.7958 320.853 43.9105 323.892 43.9105C325.411 43.9105 326.646 43.3797 327.145 41.9881H327.186V43.5545ZM323.113 37.8133C323.113 36.7631 323.113 33.4115 324.76 33.4115C326.816 33.4115 326.991 36.4168 326.991 37.8999C326.991 39.3356 326.97 42.844 324.78 42.844C323.113 42.844 323.113 38.8782 323.113 37.8133Z" fill="white"/>
<path fill-rule="evenodd" clip-rule="evenodd" d="M343.825 40.5606C343.825 41.5536 343.825 42.6937 343.129 42.6937C342.779 42.6937 342.584 42.4634 342.584 41.8803V35.4041C342.584 32.8725 340.209 32.3351 338.127 32.3351C336.592 32.3351 333.747 32.7875 333.747 34.8374C333.747 35.819 334.401 36.456 335.378 36.456C336.226 36.456 337.008 35.9072 337.008 34.9893C337.008 34.3768 336.528 33.9831 336.528 33.7414C336.528 33.1746 337.524 33.0864 337.998 33.0864C339.146 33.0864 339.445 33.8949 339.445 34.8619V37.1551C339.124 37.1338 338.82 37.1338 338.494 37.1338C336.127 37.1338 332.996 38.0877 332.996 40.8807C332.996 42.8766 334.541 43.9073 336.407 43.9073C337.604 43.9073 338.949 43.5381 339.579 42.4634C339.948 43.4663 341.08 43.9073 341.951 43.9073C344.624 43.9073 344.647 41.9995 344.647 40.5606H343.825ZM339.445 40.603C339.445 42.4748 338.319 42.8456 337.754 42.8456C336.648 42.8456 336.255 41.8411 336.255 40.866C336.255 38.9338 337.037 37.7627 338.795 37.7627C338.99 37.7627 339.164 37.7855 339.445 37.8509V40.603Z" fill="white"/>
<path fill-rule="evenodd" clip-rule="evenodd" d="M345.432 42.9256H346.167C346.825 42.9256 347.038 42.6463 347.038 41.4573V34.7965C347.038 33.5993 346.825 33.3184 346.167 33.3184H345.432V32.6879H347.714C348.519 32.6879 349.305 32.5376 350.046 32.3351V34.2559H350.091C350.96 33.0276 352.001 32.3351 353.603 32.3351C355.086 32.3351 356.176 32.8741 356.589 34.2559C357.523 32.9166 358.41 32.3351 360.214 32.3351C362.347 32.3351 363.396 33.6058 363.396 35.4107V41.4556C363.396 42.6463 363.617 42.9256 364.265 42.9256H364.743V43.5594H358.911V42.9256H359.389C360.044 42.9256 360.26 42.6463 360.26 41.4556V35.9758C360.26 34.9092 360.26 33.6712 358.872 33.6712C356.785 33.6712 356.785 36.0624 356.785 37.4099V41.4556C356.785 42.6463 357.003 42.9256 357.654 42.9256H358.13V43.5594H352.304V42.9256H352.78C353.431 42.9256 353.651 42.6463 353.651 41.4556V35.9758C353.651 34.9092 353.651 33.6712 352.261 33.6712C350.177 33.6712 350.177 36.0624 350.177 37.4197V41.4573C350.177 42.6463 350.39 42.9256 351.045 42.9256H351.521V43.5594H345.432V42.9256Z" fill="white"/>
<path fill-rule="evenodd" clip-rule="evenodd" d="M164.368 11.5918C171.08 11.5918 177.354 13.3917 182.752 16.5424L188.517 6.70483C181.43 2.55617 173.179 0.191101 164.368 0.191101C155.564 0.191101 147.324 2.55617 140.235 6.70483L145.998 16.5424C151.4 13.3917 157.682 11.5918 164.368 11.5918Z" fill="white"/>
<path fill-rule="evenodd" clip-rule="evenodd" d="M169.697 17.0014C167.357 16.9769 160.256 16.8397 151.128 21.0488C149.963 21.5894 149.139 22.0369 148.943 21.7527C148.55 21.1288 151.452 18.669 154.565 16.8691C155.691 16.2027 156.335 15.6196 156.082 15.123C155.708 14.3995 153.477 14.2492 147.252 17.4277C144.064 19.2031 141.18 21.4734 138.711 24.1162L139.726 25.0733C140.726 24.0149 141.805 23.0382 142.906 22.0794C143.641 21.4457 147.044 18.9042 147.342 19.6735C147.457 19.9806 147.239 20.4265 146.033 22.0712C144.982 23.5233 144.291 24.8822 144.79 25.2971C145.286 25.7168 145.885 25.4784 147.303 24.6976C148.355 24.1162 151.694 22.3522 156.958 20.7711C162.224 19.2031 163.502 19.8009 163.63 20.1831C163.79 20.7009 161.366 21.5551 159.937 22.264C158.741 22.8748 154.519 25.3493 152.226 27.1917C152.226 27.1917 154.449 30.9958 154.457 30.9958C156.821 29.6074 165.826 27.3338 166.789 28.977C167.843 30.7785 158.261 37.5013 158.261 37.5013L164.368 47.9743C164.368 47.9743 178.261 32.0476 176.046 28.5556C173.814 25.0798 165.45 25.7217 162.148 26.0353C161.242 26.1154 160.179 26.313 159.953 25.8671C159.705 25.3706 159.991 23.3828 171.142 20.7466C173.622 20.1651 174.588 19.863 174.452 18.7686C174.339 17.8327 172.039 17.0193 169.697 17.0014Z" fill="white"/>
<path d="M121.146 0.191101V47.9743" stroke="white" stroke-width="0.754"/>
<path fill-rule="evenodd" clip-rule="evenodd" d="M11.2168 20.3497V5.19238H12.9829V18.7539H19.6838V20.3497H11.2168Z" fill="white"/>
<path fill-rule="evenodd" clip-rule="evenodd" d="M26.2587 10.2198C25.3454 10.2198 24.6154 10.5187 24.072 11.1116C23.5286 11.7061 23.2078 12.5293 23.1112 13.5795H29.0642C29.0642 12.495 28.8219 11.6636 28.3374 11.0854C27.8513 10.5089 27.159 10.2198 26.2587 10.2198ZM26.7269 20.5571C25.0426 20.5571 23.7152 20.0459 22.743 19.0234C21.7691 17.9993 21.283 16.58 21.283 14.7621C21.283 12.9295 21.7347 11.4758 22.6382 10.3962C23.5417 9.31818 24.7562 8.77917 26.28 8.77917C27.7057 8.77917 28.835 9.24794 29.6665 10.1855C30.498 11.1214 30.9137 12.3562 30.9137 13.8915V14.9793H23.0687C23.103 16.3137 23.4419 17.3264 24.0818 18.0173C24.7235 18.7082 25.6253 19.0545 26.7891 19.0545C28.015 19.0545 29.2278 18.798 30.426 18.2868V19.8221C29.8154 20.0835 29.2393 20.2713 28.6943 20.3873C28.1525 20.5 27.4961 20.5571 26.7269 20.5571Z" fill="white"/>
<path fill-rule="evenodd" clip-rule="evenodd" d="M38.4379 20.5571C36.7897 20.5571 35.513 20.0508 34.6095 19.0398C33.7044 18.0255 33.2543 16.593 33.2543 14.7408C33.2543 12.8396 33.7126 11.3713 34.6308 10.3341C35.5474 9.29858 36.8552 8.77917 38.5525 8.77917C39.0992 8.77917 39.6459 8.83798 40.1942 8.95558C40.7409 9.07318 41.1713 9.21201 41.4823 9.37044L40.952 10.8323C40.5706 10.6804 40.1549 10.5546 39.7048 10.455C39.2563 10.3537 38.8569 10.3031 38.5116 10.3031C36.1972 10.3031 35.04 11.7763 35.04 14.7196C35.04 16.1161 35.3232 17.1876 35.8862 17.934C36.4525 18.6804 37.2873 19.0545 38.397 19.0545C39.3447 19.0545 40.3186 18.8503 41.3154 18.442V19.9659C40.5543 20.3611 39.5951 20.5571 38.4379 20.5571Z" fill="white"/>
<path fill-rule="evenodd" clip-rule="evenodd" d="M48.3699 19.1378C48.6743 19.1378 48.9689 19.1149 49.2537 19.0692C49.5369 19.0251 49.7628 18.9777 49.9281 18.9303V20.2468C49.7415 20.3366 49.4665 20.4101 49.1015 20.4689C48.7398 20.5277 48.4108 20.5571 48.1211 20.5571C45.918 20.5571 44.8164 19.3991 44.8164 17.0847V10.3243H43.1846V9.49457L44.8164 8.77917L45.5432 6.35367H46.5416V8.9866H49.8446V10.3243H46.5416V17.0112C46.5416 17.6955 46.7036 18.2215 47.0293 18.5873C47.3551 18.9532 47.8019 19.1378 48.3699 19.1378Z" fill="white"/>
<path fill-rule="evenodd" clip-rule="evenodd" d="M53.1575 14.6575C53.1575 16.1096 53.4472 17.2153 54.0299 17.9765C54.6109 18.736 55.467 19.1165 56.5963 19.1165C57.7257 19.1165 58.5817 18.7376 59.1677 17.9814C59.7537 17.2235 60.045 16.1161 60.045 14.6575C60.045 13.2137 59.7537 12.1161 59.1677 11.3664C58.5817 10.6167 57.7175 10.241 56.5751 10.241C55.4457 10.241 54.5946 10.6118 54.02 11.35C53.4455 12.0899 53.1575 13.1924 53.1575 14.6575ZM61.8324 14.6575C61.8324 16.5114 61.3642 17.9569 60.4296 18.9973C59.495 20.0377 58.2036 20.5571 56.5538 20.5571C55.5357 20.5571 54.6322 20.3187 53.8433 19.8417C53.0527 19.3648 52.4438 18.6804 52.015 17.7886C51.5845 16.8968 51.3701 15.8531 51.3701 14.6575C51.3701 12.8053 51.835 11.3631 52.763 10.3292C53.6894 9.29694 54.9792 8.77917 56.6274 8.77917C58.22 8.77917 59.4852 9.30838 60.4247 10.3651C61.3626 11.4235 61.8324 12.8543 61.8324 14.6575Z" fill="white"/>
<path fill-rule="evenodd" clip-rule="evenodd" d="M69.9638 8.77917C70.4696 8.77917 70.9229 8.82164 71.3239 8.90331L71.085 10.5007C70.6152 10.3962 70.1995 10.3455 69.8394 10.3455C68.9179 10.3455 68.1306 10.7179 67.4743 11.4644C66.8212 12.2108 66.4938 13.1418 66.4938 14.2541V20.3497H64.7687V8.98661H66.1927L66.3891 11.092H66.4726C66.8948 10.3521 67.4039 9.78204 67.9997 9.38024C68.5954 8.98007 69.2502 8.77917 69.9638 8.77917Z" fill="white"/>
<path fill-rule="evenodd" clip-rule="evenodd" d="M76.4323 19.1378C77.506 19.1378 78.3506 18.8438 78.9628 18.2558C79.5766 17.6678 79.8826 16.8462 79.8826 15.7878V14.7621L78.1575 14.8339C76.7859 14.8829 75.7973 15.0953 75.1916 15.4726C74.586 15.8482 74.2816 16.4346 74.2816 17.23C74.2816 17.8507 74.4715 18.3244 74.8479 18.6494C75.226 18.9744 75.7547 19.1378 76.4323 19.1378ZM80.3295 20.3497L79.9858 18.7327H79.9039C79.3343 19.4448 78.7696 19.9267 78.2049 20.1798C77.6403 20.4314 76.9348 20.5571 76.0902 20.5571C74.9609 20.5571 74.077 20.2664 73.4354 19.6866C72.7954 19.1051 72.4746 18.2803 72.4746 17.2088C72.4746 14.914 74.3143 13.7118 77.9922 13.6008L79.9236 13.5387V12.8331C79.9236 11.9413 79.732 11.2831 79.3474 10.8584C78.9628 10.4337 78.3473 10.2198 77.5028 10.2198C76.5551 10.2198 75.4797 10.5105 74.2816 11.092L73.7529 9.77552C74.3143 9.47172 74.9281 9.23325 75.5959 9.06011C76.2654 8.88698 76.9348 8.80042 77.6075 8.80042C78.9644 8.80042 79.971 9.10095 80.6241 9.70202C81.2804 10.3031 81.6078 11.2684 81.6078 12.5946V20.3497H80.3295Z" fill="white"/>
<path fill-rule="evenodd" clip-rule="evenodd" d="M88.1189 19.1378C89.191 19.1378 90.0356 18.8438 90.6477 18.2558C91.2615 17.6678 91.5676 16.8462 91.5676 15.7878V14.7621L89.8424 14.8339C88.4708 14.8829 87.4822 15.0953 86.8766 15.4726C86.271 15.8482 85.9682 16.4346 85.9682 17.23C85.9682 17.8507 86.1564 18.3244 86.5329 18.6494C86.911 18.9744 87.4396 19.1378 88.1189 19.1378ZM92.0144 20.3497L91.6723 18.7327H91.5888C91.0209 19.4448 90.4546 19.9267 89.8899 20.1798C89.3252 20.4314 88.6197 20.5571 87.7752 20.5571C86.6458 20.5571 85.7619 20.2664 85.1203 19.6866C84.4803 19.1051 84.1595 18.2803 84.1595 17.2088C84.1595 14.914 85.9993 13.7118 89.6771 13.6008L91.6085 13.5387V12.8331C91.6085 11.9413 91.417 11.2831 91.0323 10.8584C90.6477 10.4337 90.0339 10.2198 89.1877 10.2198C88.24 10.2198 87.1663 10.5105 85.9682 11.092L85.4379 9.77552C85.9993 9.47172 86.6131 9.23325 87.2809 9.06011C87.9503 8.88698 88.6197 8.80042 89.2925 8.80042C90.6493 8.80042 91.656 9.10095 92.3107 9.70202C92.9654 10.3031 93.2927 11.2684 93.2927 12.5946V20.3497H92.0144Z" fill="white"/>
<path fill-rule="evenodd" clip-rule="evenodd" d="M100.514 19.1378C100.819 19.1378 101.115 19.1149 101.398 19.0692C101.681 19.0251 101.907 18.9777 102.074 18.9303V20.2468C101.886 20.3366 101.611 20.4101 101.247 20.4689C100.884 20.5277 100.557 20.5571 100.265 20.5571C98.0622 20.5571 96.9623 19.3991 96.9623 17.0847V10.3243H95.3304V9.49457L96.9623 8.77917L97.689 6.35367H98.6858V8.9866H101.99V10.3243H98.6858V17.0112C98.6858 17.6955 98.8495 18.2215 99.1752 18.5873C99.4993 18.9532 99.9461 19.1378 100.514 19.1378Z" fill="white"/>
<path fill-rule="evenodd" clip-rule="evenodd" d="M11.2364 35.8827C11.2364 33.9047 10.7405 32.4151 9.74533 31.4139C8.75181 30.411 7.27544 29.9096 5.31459 29.9096H2.74813V42.0191H4.89885C7.00537 42.0191 8.58813 41.503 9.64712 40.4707C10.7078 39.4368 11.2364 37.9064 11.2364 35.8827ZM13.1073 35.819C13.1073 38.3213 12.4264 40.2355 11.0662 41.5585C9.70441 42.8815 7.74683 43.543 5.1902 43.543H0.982056V28.3857H5.63703C7.99889 28.3857 9.83372 29.039 11.1431 30.3457C12.4525 31.6524 13.1073 33.4768 13.1073 35.819Z" fill="white"/>
<path fill-rule="evenodd" clip-rule="evenodd" d="M16.2024 43.543H17.9276V32.1799H16.2024V43.543ZM16.0568 29.1011C16.0568 28.7075 16.1533 28.4184 16.3481 28.2354C16.5429 28.0525 16.7851 27.961 17.0748 27.961C17.3531 27.961 17.5921 28.0541 17.7917 28.2403C17.9931 28.4282 18.0929 28.714 18.0929 29.1011C18.0929 29.4882 17.9931 29.7773 17.7917 29.9668C17.5921 30.1579 17.3531 30.2526 17.0748 30.2526C16.7851 30.2526 16.5429 30.1579 16.3481 29.9668C16.1533 29.7773 16.0568 29.4882 16.0568 29.1011Z" fill="white"/>
<path fill-rule="evenodd" clip-rule="evenodd" d="M22.6038 35.819C22.6038 36.6144 22.828 37.2155 23.2781 37.6238C23.7282 38.0305 24.3568 38.2347 25.1588 38.2347C26.843 38.2347 27.6843 37.4197 27.6843 35.788C27.6843 34.0811 26.8316 33.2285 25.1277 33.2285C24.3175 33.2285 23.6939 33.4458 23.2585 33.8802C22.8215 34.3163 22.6038 34.9631 22.6038 35.819ZM21.6675 45.4508C21.6675 46.0665 21.9278 46.5337 22.4483 46.8505C22.9671 47.169 23.7119 47.3275 24.6808 47.3275C26.1294 47.3275 27.2015 47.1119 27.8971 46.679C28.5927 46.2478 28.9414 45.6615 28.9414 44.9232C28.9414 44.3074 28.7515 43.8795 28.3701 43.6427C27.9888 43.4042 27.2719 43.285 26.2194 43.285H24.1522C23.3698 43.285 22.7593 43.4712 22.3223 43.8452C21.8869 44.2176 21.6675 44.7533 21.6675 45.4508ZM30.7484 32.1799V33.2694L28.6402 33.5176C28.8333 33.7594 29.0068 34.0762 29.1591 34.4666C29.3113 34.857 29.3882 35.298 29.3882 35.788C29.3882 36.9019 29.0068 37.7888 28.2457 38.4536C27.483 39.1167 26.4371 39.4483 25.108 39.4483C24.7676 39.4483 24.4501 39.4205 24.1522 39.365C23.4173 39.7521 23.0506 40.2388 23.0506 40.8268C23.0506 41.1388 23.1783 41.3674 23.4353 41.5161C23.6906 41.6663 24.1309 41.7398 24.7545 41.7398H26.7694C28.0035 41.7398 28.9495 41.9995 29.6124 42.5173C30.2721 43.0351 30.6027 43.7897 30.6027 44.7778C30.6027 46.0355 30.0969 46.9943 29.087 47.6541C28.0755 48.314 26.6008 48.6439 24.6612 48.6439C23.1717 48.6439 22.0227 48.3679 21.2174 47.8158C20.4089 47.2621 20.0062 46.4814 20.0062 45.472C20.0062 44.7811 20.2272 44.1833 20.6708 43.6786C21.1143 43.1739 21.7379 42.8309 22.5416 42.6512C22.2502 42.5206 22.0064 42.3164 21.8083 42.0404C21.6119 41.7627 21.5121 41.4426 21.5121 41.0767C21.5121 40.6618 21.6234 40.2992 21.8443 39.9873C22.0669 39.6769 22.4172 39.3764 22.8935 39.0857C22.3059 38.8439 21.8263 38.4323 21.4548 37.8525C21.0849 37.271 20.8999 36.6079 20.8999 35.8615C20.8999 34.6169 21.2731 33.6581 22.0211 32.9835C22.7691 32.3106 23.8297 31.9725 25.2013 31.9725C25.7955 31.9725 26.334 32.0427 26.8119 32.1799H30.7484Z" fill="white"/>
<path fill-rule="evenodd" clip-rule="evenodd" d="M33.1119 43.543H34.837V32.1799H33.1119V43.543ZM32.9662 29.1011C32.9662 28.7075 33.0628 28.4184 33.2575 28.2354C33.4523 28.0525 33.6945 27.961 33.9843 27.961C34.2625 27.961 34.5015 28.0541 34.7012 28.2403C34.9025 28.4282 35.0023 28.714 35.0023 29.1011C35.0023 29.4882 34.9025 29.7773 34.7012 29.9668C34.5015 30.1579 34.2625 30.2526 33.9843 30.2526C33.6945 30.2526 33.4523 30.1579 33.2575 29.9668C33.0628 29.7773 32.9662 29.4882 32.9662 29.1011Z" fill="white"/>
<path fill-rule="evenodd" clip-rule="evenodd" d="M42.2827 42.3311C42.5871 42.3311 42.8818 42.3082 43.1649 42.2625C43.4497 42.2184 43.674 42.171 43.8409 42.1237V43.4401C43.6543 43.53 43.3793 43.6035 43.0143 43.6639C42.651 43.7211 42.3236 43.7505 42.0323 43.7505C39.8308 43.7505 38.7293 42.5924 38.7293 40.278V33.5176H37.0974V32.6879L38.7293 31.9725L39.456 29.547H40.4544V32.1799H43.7574V33.5176H40.4544V40.2045C40.4544 40.8889 40.6165 41.4148 40.9422 41.7807C41.2679 42.1465 41.7147 42.3311 42.2827 42.3311Z" fill="white"/>
<path fill-rule="evenodd" clip-rule="evenodd" d="M49.586 42.3311C50.6597 42.3311 51.5043 42.0371 52.1165 41.4491C52.7302 40.8611 53.0363 40.0395 53.0363 38.9811V37.9554L51.3112 38.0273C49.9396 38.0763 48.9509 38.2886 48.3453 38.6659C47.7381 39.0416 47.4353 39.6279 47.4353 40.4234C47.4353 41.0457 47.6235 41.5193 48.0016 41.8427C48.3797 42.1678 48.9084 42.3311 49.586 42.3311ZM53.4815 43.543L53.1394 41.926H53.056C52.488 42.6382 51.9217 43.12 51.3586 43.3732C50.7923 43.6247 50.0885 43.7505 49.2439 43.7505C48.1146 43.7505 47.2291 43.4614 46.5891 42.8799C45.9475 42.3001 45.6283 41.4736 45.6283 40.4021C45.6283 38.1073 47.4664 36.9052 51.1442 36.7941L53.0772 36.732V36.0264C53.0772 35.1346 52.8841 34.478 52.5011 34.0517C52.1165 33.6271 51.501 33.4147 50.6565 33.4147C49.7071 33.4147 48.6334 33.7055 47.4353 34.2853L46.905 32.9688C47.4664 32.665 48.0818 32.4266 48.7496 32.2534C49.4191 32.0803 50.0885 31.9937 50.7596 31.9937C52.1181 31.9937 53.1247 32.2943 53.7778 32.8953C54.4341 33.498 54.7598 34.4617 54.7598 35.788V43.543H53.4815Z" fill="white"/>
<path fill-rule="evenodd" clip-rule="evenodd" d="M58.197 43.543H59.9222V27.4106H58.197V43.543Z" fill="white"/>
<path fill-rule="evenodd" clip-rule="evenodd" d="M69.3663 43.543V28.3857H71.1324V41.9473H77.8334V43.543H69.3663Z" fill="white"/>
<path fill-rule="evenodd" clip-rule="evenodd" d="M80.246 43.543H81.9712V32.1799H80.246V43.543ZM80.1003 29.1011C80.1003 28.7075 80.1969 28.4184 80.3917 28.2354C80.5865 28.0525 80.8287 27.961 81.1184 27.961C81.3967 27.961 81.6356 28.0541 81.8353 28.2403C82.0366 28.4282 82.1365 28.714 82.1365 29.1011C82.1365 29.4882 82.0366 29.7773 81.8353 29.9668C81.6356 30.1579 81.3967 30.2526 81.1184 30.2526C80.8287 30.2526 80.5865 30.1579 80.3917 29.9668C80.1969 29.7773 80.1003 29.4882 80.1003 29.1011Z" fill="white"/>
<path fill-rule="evenodd" clip-rule="evenodd" d="M90.8817 33.5176H87.983V43.543H86.2578V33.5176H84.2217V32.7402L86.2578 32.1179V31.4858C86.2578 28.6944 87.4805 27.2979 89.9258 27.2979C90.5282 27.2979 91.2352 27.4188 92.0455 27.6605L91.5986 29.039C90.9341 28.8251 90.3661 28.7173 89.8947 28.7173C89.2433 28.7173 88.7621 28.9345 88.4511 29.3657C88.1385 29.7969 87.983 30.4911 87.983 31.4449V32.1799H90.8817V33.5176Z" fill="white"/>
<path fill-rule="evenodd" clip-rule="evenodd" d="M97.1784 33.4147C96.2651 33.4147 95.5351 33.712 94.9917 34.3065C94.4483 34.8994 94.1275 35.7226 94.0309 36.7729H99.9839C99.9839 35.6883 99.7416 34.857 99.2571 34.2804C98.771 33.7038 98.0803 33.4147 97.1784 33.4147ZM97.6465 43.7505C95.9639 43.7505 94.6349 43.2392 93.6626 42.2168C92.6888 41.1927 92.2026 39.7733 92.2026 37.9554C92.2026 36.1228 92.6544 34.6691 93.5579 33.5911C94.4614 32.5131 95.6759 31.9725 97.1997 31.9725C98.627 31.9725 99.7547 32.4413 100.586 33.3788C101.418 34.3147 101.833 35.5495 101.833 37.0848V38.1726H93.99C94.0244 39.5071 94.3615 40.5197 95.0015 41.2106C95.6431 41.9032 96.545 42.2478 97.7087 42.2478C98.9347 42.2478 100.148 41.9914 101.346 41.4801V43.0155C100.735 43.2768 100.159 43.4663 99.6156 43.5806C99.0722 43.6933 98.4158 43.7505 97.6465 43.7505Z" fill="white"/>
</g>
<defs>
<clipPath id="clip0_33_114">
<rect width="365" height="49" fill="white"/>
</clipPath>
</defs>
</svg>
